<?xml version="1.0" encoding="UTF-8"?>
<!-- Generated by Pixelmator Pro 4.2 -->
<svg width="586" height="658" viewBox="0 0 586 658" xmlns="http://www.w3.org/2000/svg">
    <g id="Gruppe">
        <path id="Pfeil-von-Punkt-Kopie" fill="#ffffff" fill-rule="evenodd" stroke="none" d="M 570.5 0 L 555 31 L 567.09375 31 L 567.021423 602.69458 C 561.866333 604.198242 558.099976 608.95929 558.099976 614.599976 C 558.099976 621.448303 563.651672 627 570.5 627 C 577.348328 627 582.900024 621.448303 582.900024 614.599976 C 582.900024 608.95929 579.133667 604.198242 573.978577 602.69458 L 573.90625 31 L 586 31 Z"/>
        <path id="Pfeil-von-Punkt" fill="#ffffff" fill-rule="evenodd" stroke="none" d="M 544 642.5 L 513 627 L 513 639.09375 L 24.305443 639.021423 C 22.801743 633.866333 18.040712 630.099976 12.4 630.099976 C 5.551669 630.099976 0 635.651672 0 642.5 C 0 649.348328 5.551669 654.900024 12.4 654.900024 C 18.040712 654.900024 22.801743 651.133667 24.305443 645.978577 L 513 645.90625 L 513 658 Z"/>
    </g>
</svg>
