<?xml version="1.0" encoding="UTF-8"?>
<!-- Generated by Pixelmator Pro 4.2 -->
<svg width="1161" height="1169" viewBox="0 0 1161 1169" xmlns="http://www.w3.org/2000/svg">
    <clipPath id="clipPath1">
        <path d="M 258 3 L 903 3 C 1043.832642 3 1158 117.167358 1158 258 L 1158 911 C 1158 1051.832642 1043.832642 1166 903 1166 L 258 1166 C 117.167389 1166 3 1051.832642 3 911 L 3 258 C 3 117.167358 117.167389 3 258 3 Z"/>
    </clipPath>
    <g id="Gruppe" clip-path="url(#clipPath1)">
        <path id="Pfad" fill="#000000" stroke="#ffefd4" stroke-width="2.2" stroke-opacity="0.12" d="M 45 3 L 45 1166"/>
        <path id="path1" fill="#000000" stroke="#ffefd4" stroke-width="2.2" stroke-opacity="0.12" d="M 164.5 3 L 164.5 1166"/>
        <path id="path2" fill="#000000" stroke="#ffefd4" stroke-width="2.2" stroke-opacity="0.12" d="M 284 3 L 284 1166"/>
        <path id="path3" fill="#000000" stroke="#ffefd4" stroke-width="2.2" stroke-opacity="0.12" d="M 403.5 3 L 403.5 1166"/>
        <path id="path4" fill="#000000" stroke="#ffefd4" stroke-width="2.2" stroke-opacity="0.12" d="M 523 3 L 523 1166"/>
        <path id="path5" fill="#000000" stroke="#ffefd4" stroke-width="2.2" stroke-opacity="0.12" d="M 642.5 3 L 642.5 1166"/>
        <path id="path6" fill="#000000" stroke="#ffefd4" stroke-width="2.2" stroke-opacity="0.12" d="M 762 3 L 762 1166"/>
        <path id="path7" fill="#000000" stroke="#ffefd4" stroke-width="2.2" stroke-opacity="0.12" d="M 881.5 3 L 881.5 1166"/>
        <path id="path8" fill="#000000" stroke="#ffefd4" stroke-width="2.2" stroke-opacity="0.12" d="M 1001 3 L 1001 1166"/>
        <path id="path9" fill="#000000" stroke="#ffefd4" stroke-width="2.2" stroke-opacity="0.12" d="M 1120.5 3 L 1120.5 1166"/>
        <path id="path10" fill="#000000" stroke="#ffefd4" stroke-width="2.2" stroke-opacity="0.12" d="M 3 77.5 L 1158 77.5"/>
        <path id="path11" fill="#000000" stroke="#ffefd4" stroke-width="2.2" stroke-opacity="0.12" d="M 3 197 L 1158 197"/>
        <path id="path12" fill="#000000" stroke="#ffefd4" stroke-width="2.2" stroke-opacity="0.12" d="M 3 316.5 L 1158 316.5"/>
        <path id="path13" fill="#000000" stroke="#ffefd4" stroke-width="2.2" stroke-opacity="0.12" d="M 3 436 L 1158 436"/>
        <path id="path14" fill="#000000" stroke="#ffefd4" stroke-width="2.2" stroke-opacity="0.12" d="M 3 555.5 L 1158 555.5"/>
        <path id="path15" fill="#000000" stroke="#ffefd4" stroke-width="2.2" stroke-opacity="0.12" d="M 3 675 L 1158 675"/>
        <path id="path16" fill="#000000" stroke="#ffefd4" stroke-width="2.2" stroke-opacity="0.12" d="M 3 794.5 L 1158 794.5"/>
        <path id="path17" fill="#000000" stroke="#ffefd4" stroke-width="2.2" stroke-opacity="0.12" d="M 3 914 L 1158 914"/>
        <path id="path18" fill="#000000" stroke="#ffefd4" stroke-width="2.2" stroke-opacity="0.12" d="M 3 1033.5 L 1158 1033.5"/>
        <path id="path19" fill="#000000" stroke="#ffefd4" stroke-width="2.2" stroke-opacity="0.12" d="M 3 1153 L 1158 1153"/>
    </g>
</svg>
