<?xml version="1.0" encoding="UTF-8"?>
<!-- Generated by Pixelmator Pro 4.2 -->
<svg width="544" height="599" viewBox="0 0 544 599" xmlns="http://www.w3.org/2000/svg">
    <path id="Pfad" fill="#fefdfd" stroke="none" d="M 4.940493 598.2146 C 1.568413 596.921875 0 593.119812 0 586.428162 C 0 578.747986 1.097885 576.390686 15.840985 552.589722 C 30.270384 529.244995 33.956142 523.617981 51.522392 498.144104 L 66.736 476.016052 L 65.324409 466.586945 C 63.599171 454.648438 63.363892 421.722534 64.932304 411.913147 C 66.343895 403.320496 69.402298 390.84967 71.833344 383.625732 C 73.793854 377.846619 73.872284 377.694519 76.381729 377.694519 L 78.969627 377.694519 L 81.40065 385.906982 C 82.812233 390.393433 84.537476 395.71637 85.400108 397.76947 L 86.811691 401.495483 L 87.282196 382.180969 C 87.752724 359.59668 89.085892 349.711304 94.340057 329.788452 C 107.985275 277.928223 137.471436 232.075256 188.915421 182.496277 C 204.128998 167.744263 204.991653 167.059875 207.893188 167.059875 C 210.716354 167.059875 210.951614 167.211975 210.951614 169.265106 C 210.951614 170.48175 210.245804 174.664001 209.461594 178.542114 C 205.932663 195.19519 204.599548 214.357635 206.167969 223.330505 C 206.560074 225.231537 206.873718 225.991943 206.952179 225.079437 C 207.108978 221.885712 213.147385 200.137878 215.892105 192.91394 C 227.733658 161.4328 243.260941 138.772461 272.511841 110.333008 C 293.920654 89.421631 310.624268 76.266418 336.816772 59.461304 C 372.890289 36.344727 411.551666 18.322937 446.213623 8.51355 C 483.6987 -2.056213 522.360107 -2.892639 534.280029 6.612549 C 542.357361 13.1521 545.337402 27.067688 543.455261 50.032166 C 540.083191 92.083069 523.693237 150.25473 501.500183 198.617065 C 477.973999 249.868958 452.016785 281.806366 417.197968 302.413544 C 405.199615 309.485382 384.574982 318.534332 361.911407 326.594696 C 359.872498 327.355133 360.186127 327.431183 364.264008 327.050995 C 380.418671 325.68219 395.475433 322.868713 411.316437 318.306213 C 417.041138 316.70932 422.844269 315.340576 424.177429 315.340576 C 426.373199 315.340576 426.608459 315.568695 426.608459 317.621826 C 426.608459 320.359314 425.118439 322.716614 415.786407 334.807159 C 363.950317 402.179871 296.979095 450.085938 231.340988 466.738983 C 222.165756 469.096313 201.854828 472.670258 197.384842 472.822296 L 194.875366 472.898376 L 196.992737 473.506683 C 200.364822 474.495209 216.990005 475.787933 226.165237 475.787933 L 234.477814 475.787933 L 234.477814 478.449371 L 234.477814 481.03479 L 221.773651 487.118103 C 200.521667 497.155548 180.524399 503.238861 160.52713 505.82428 C 142.490372 508.10553 114.964706 506.964905 97.633736 503.238861 L 91.360085 501.946167 L 91.124832 499.208679 C 90.889557 496.85141 92.144287 494.646179 101.633194 481.03479 C 163.428696 391.914276 260.513489 277.548004 357.206146 179.986908 C 362.381897 174.740021 365.361938 171.546326 363.871918 172.838989 C 303.644867 224.243011 246.397766 282.110504 184.60228 354.121704 C 118.80732 430.695374 75.048592 494.41806 35.681404 570.839661 C 25.64357 590.306274 21.879362 595.401001 15.919387 597.9104 C 13.096262 599.127014 7.606815 599.203125 4.940493 598.2146 Z"/>
</svg>
